<?xml version="1.0" encoding="utf-8" ?>
<svg xmlns="http://www.w3.org/2000/svg" xmlns:xlink="http://www.w3.org/1999/xlink" width="1920" height="1080">
	<path fill="#FFFBBF" transform="matrix(1.05382 -0.00199119 0.00199626 1.05115 0 3.62399)" d="M0 0L1818.44 0C1819.48 1.65762 1819.8 2.96127 1819.91 4.89145C1821.48 33.4811 1820.06 62.8882 1820.04 91.5669C1820.03 101.911 1821.46 125.434 1819.76 134.619C1819.56 135.742 1819.06 136.784 1818.46 137.746C1819.6 139.589 1819.84 141.033 1819.92 143.169C1820.57 160.897 1820.03 178.839 1820.03 196.585L1820.04 299.666C1820.03 310.315 1821.56 358.007 1819.54 365.408C1819.38 365.995 1819.13 366.562 1818.86 367.107C1820.91 372.037 1821.48 389.237 1819.5 394.449C1819.25 395.109 1818.94 395.725 1818.58 396.331C1820.79 400.361 1820.76 410.276 1819.45 414.617C1819.29 415.122 1819.07 415.552 1818.84 416.033C1820.76 420.495 1821.2 484.676 1819.44 489.828C1819.24 490.399 1818.92 490.947 1818.6 491.457C1820.65 495.585 1821.01 505.941 1819.39 510.233C1819.17 510.824 1818.85 511.361 1818.5 511.884C1819.28 513.211 1819.74 514.428 1819.86 515.962C1820.57 524.981 1820.05 534.424 1820.05 543.481L1820.06 595.56C1820.05 605.726 1821.51 638.466 1819.54 646.679C1819.43 647.179 1819.22 647.667 1819.04 648.145C1821.57 655.625 1820.45 867.907 1819.12 870.786C1818.88 871.305 1818.78 871.44 1818.5 871.881C1820.93 876.074 1820.97 889.101 1819.54 893.859C1819.32 894.604 1818.91 895.295 1818.48 895.936C1819.27 897.25 1819.73 898.45 1819.85 899.981C1820.77 911.444 1820.99 1016.5 1819.62 1021.43C1819.37 1022.36 1818.95 1023.19 1818.44 1024L1805.58 1024L1783.3 1024L1685.48 1024L1662.27 1024L1311.29 1024L508.723 1024L157.361 1024L134.589 1024L32.1496 1024L8.52415 1024L0 1024L0 646.166L0 510.72L0 492.442L0 415.562L0 396.809L0 366.068L0 135.472L0 0Z"/>
	<path fill="#FFFBBF" transform="matrix(1.05382 -0.00199119 0.00199626 1.05115 0 3.62399)" d="M1818.84 416.033C1820.76 420.495 1821.2 484.676 1819.44 489.828C1819.24 490.399 1818.92 490.947 1818.6 491.457C1820.65 495.585 1821.01 505.941 1819.39 510.233C1819.17 510.824 1818.85 511.361 1818.5 511.884C1819.28 513.211 1819.74 514.428 1819.86 515.962C1820.57 524.981 1820.05 534.424 1820.05 543.481L1820.06 595.56C1820.05 605.726 1821.51 638.466 1819.54 646.679C1819.43 647.179 1819.22 647.667 1819.04 648.145C1821.57 655.625 1820.45 867.907 1819.12 870.786C1818.88 871.305 1818.78 871.44 1818.5 871.881C1820.93 876.074 1820.97 889.101 1819.54 893.859C1819.32 894.604 1818.91 895.295 1818.48 895.936C1819.27 897.25 1819.73 898.45 1819.85 899.981C1820.77 911.444 1820.99 1016.5 1819.62 1021.43C1819.37 1022.36 1818.95 1023.19 1818.44 1024L1805.58 1024L1783.3 1024L1685.48 1024L1662.27 1024L1311.29 1024L508.723 1024L157.361 1024L134.589 1024L32.1496 1024L8.52415 1024L0 1024L0 646.166L0 510.72L0 492.442C50.6155 509.175 102.031 523.449 152.948 539.15C160.206 541.388 196.275 554.799 201.34 554.685C201.827 554.674 203.005 554.219 203.46 554.006C203.95 553.777 204.048 553.68 204.431 553.393C205.551 555.436 205.464 557.995 206.062 560.253Q207.166 564.332 208.726 568.259Q210.287 572.185 212.284 575.909C212.468 576.243 212.633 576.587 212.809 576.925L213.129 577.532C226.618 601.198 245.324 615.152 271.517 622.295C289.179 627.112 311.117 628.939 328.778 623.278C336.439 620.822 343.283 617.017 350.606 613.805C361.82 619.238 390.273 623.822 403.442 626.601Q476.744 642.792 550.923 654.31C569.709 657.229 589.935 661.623 608.95 661.543C607.742 673.05 608.66 684.922 608.759 696.482L608.796 750.23C608.872 767.506 606.937 787.95 608.804 804.797C609.167 808.07 610.588 810.326 612.646 812.815C616.606 817.604 622.825 818.56 628.743 819.032C645.677 820.382 663.61 819.416 680.627 819.299L756.12 819.29L1012.11 818.949L1136.66 819.232C1157.88 819.258 1184.13 821.764 1204.51 817.239C1208.58 813.575 1210.78 808.529 1211.06 803.105C1212.3 779.375 1211.04 755.176 1210.95 731.387C1210.86 711.144 1212 690.508 1210.81 670.31C1210.7 668.333 1210.48 666.724 1209.49 664.961C1211.08 664.246 1211.91 664.145 1213.66 664.285C1214.99 664.392 1215.9 664.468 1217.19 664.147C1218.93 667 1219.01 680.189 1219.78 684.631C1221.61 695.112 1226.27 702.845 1235.15 708.939C1245.28 715.886 1259.1 716.522 1270.81 714.128C1291.24 709.948 1310.6 695.252 1321.78 677.906C1326.54 670.507 1333.63 654.938 1331.7 646.096C1333.02 644.828 1334.22 643.95 1335.95 643.328C1342.06 641.136 1349.68 640.449 1356.06 638.925C1370.47 635.484 1384.81 631.216 1399.36 628.455C1402.43 630.471 1404.86 633.05 1407.6 635.48C1418.83 645.452 1426.99 646.622 1441.66 645.605C1463.81 644.07 1479.1 632.124 1493 616.028C1495.96 612.603 1501.22 606.524 1500.87 601.765C1500.99 601.683 1501.1 601.607 1501.21 601.52C1504.95 598.525 1506.78 588.725 1507.27 584.08C1507.37 583.905 1507.49 583.739 1507.57 583.555C1509.5 579.302 1509.19 570.956 1508.85 566.371C1508.21 557.684 1500.93 515.348 1497.89 508.47C1524.07 503.254 1550.55 496.61 1576.15 489.034C1577.75 492.381 1578.2 496.288 1579.23 499.853C1582.16 509.957 1585.65 520.35 1595.47 525.6C1608.28 532.44 1620.15 534.825 1634.36 530.53C1654.75 524.367 1669.94 509.063 1679.71 490.595C1683.54 483.361 1690.23 463.295 1687.71 455.103C1692.75 454.835 1698.9 452.257 1703.86 450.912C1727.72 444.453 1751.12 436.699 1774.73 429.417C1789.22 424.947 1804.78 421.596 1818.84 416.033Z"/>
	<path fill="#367A00" transform="matrix(1.05382 -0.00199119 0.00199626 1.05115 0 3.62399)" d="M0 646.166C3.42787 649.899 8.15612 652.765 12.2566 655.734C24.7556 664.786 38.8375 674.283 47.254 687.573C47.4284 687.632 47.6049 687.684 47.7773 687.748C53.2003 689.762 57.8527 695.916 61.6838 700.093C68.4074 707.423 75.8896 715.013 81.6508 723.1C91.4754 736.891 98.4488 752.63 105.932 767.761C108.598 773.153 111.877 778.49 114.244 783.991C116.693 789.683 117.583 796.029 120.683 801.449C121.888 803.554 121.575 805.969 121.448 808.31L122.515 809.409C131.797 807.644 141.059 803.11 150.457 800.845C184.322 792.683 214.684 801.445 243.153 820.762C251.516 826.437 285.463 860.532 286.687 868.169C287.04 870.371 284.194 872.898 286.001 874.521L288.817 873.708C290.559 874.812 291.455 875.336 291.925 877.535C292.232 878.967 291.995 880.889 291.935 882.356C293.267 884.085 294.72 885.347 296.393 886.724L294.579 889.458Q296.027 890.745 297.426 892.086L295.46 893.674C296.733 893.968 296.979 893.694 298.198 893.167L297.067 896.485C300.192 901.509 306.314 908.597 304.995 914.674C304.56 916.676 302.905 919.33 303.183 921.282C304.654 921.52 306.073 921.806 307.521 922.16L308.707 923.994C308.235 925.617 307.602 926.654 306.605 928.012C307.4 929.42 308.182 930.39 309.341 931.513L307.194 932.914C308.472 937.266 310.087 941.879 310.717 946.367C312.126 956.4 312.353 978.799 309.99 988.441C309.684 989.692 310.012 991.005 310.285 992.238L311.324 992.748C319.949 983.283 325.839 971.522 333.779 961.511C340.668 952.827 348.863 945.721 357.496 938.863C381.037 920.16 397.152 913.566 427.55 912.156C443.519 911.415 463.656 914.424 475.694 925.562C491.971 940.623 495.066 954.408 502.19 973.815C501.471 974.565 500.818 975.116 499.943 975.676C501.074 977.592 502.461 978.965 504.058 980.483C505.804 990.48 506.824 1000.73 507.695 1010.84C508.082 1015.34 507.792 1019.52 508.723 1024L157.361 1024L134.589 1024L32.1496 1024L8.52415 1024L0 1024L0 646.166Z"/>
	<path fill="#003C78" transform="matrix(1.05382 -0.00199119 0.00199626 1.05115 0 3.62399)" d="M8.52415 1024C25.4369 968.819 36.8935 866.09 25.6262 809.525C24.3377 803.056 24.4065 792.741 31.322 789.238C33.0924 788.342 35.0389 788.243 36.9132 788.877C40.7899 790.187 43.2949 793.966 44.8181 797.563C48.7817 806.924 49.0163 818.867 49.713 828.912C52.78 873.132 49.2899 916.06 43.7512 959.896C41.0901 980.958 38.2444 1003.66 32.1496 1024L8.52415 1024Z"/>
	<path fill="#003C78" transform="matrix(1.05382 -0.00199119 0.00199626 1.05115 0 3.62399)" d="M134.589 1024C138.29 992.523 138.793 960.708 139.019 929.05C139.123 914.437 137.57 896.508 139.7 882.295C140.188 879.038 141.716 876.819 144.309 874.857C146.402 873.274 149.11 872.077 151.776 872.376C154.222 872.651 156.026 874.164 157.382 876.131C159.2 878.77 159.879 882.125 160.224 885.252C161.309 895.108 160.207 905.666 160.217 915.601C160.231 930.496 161.296 945.982 160.153 960.794C174.641 951.53 185.618 937.612 194.784 923.299C199.545 920.955 203.527 919.925 208.787 921.185C210.722 922.682 211.67 923.315 212.183 925.872C213.985 934.869 205.894 946.384 200.629 953.202C189.957 967.02 176.039 978.351 159.413 983.951C159.134 997.326 157.609 1010.67 157.361 1024L134.589 1024Z"/>
	<path fill="#367A00" transform="matrix(1.05382 -0.00199119 0.00199626 1.05115 0 3.62399)" d="M1819.04 648.145C1821.57 655.625 1820.45 867.907 1819.12 870.786C1818.88 871.305 1818.78 871.44 1818.5 871.881C1820.93 876.074 1820.97 889.101 1819.54 893.859C1819.32 894.604 1818.91 895.295 1818.48 895.936C1819.27 897.25 1819.73 898.45 1819.85 899.981C1820.77 911.444 1820.99 1016.5 1819.62 1021.43C1819.37 1022.36 1818.95 1023.19 1818.44 1024L1805.58 1024L1783.3 1024L1685.48 1024L1662.27 1024L1311.29 1024C1314.34 1015.72 1312.99 1003.94 1313.72 995.086C1314.23 988.873 1315.47 982.55 1316.9 976.485C1317.3 974.79 1317.75 971.512 1318.76 970.198C1319.19 969.654 1320.61 969.693 1321.29 969.603C1320.63 968.882 1320.92 969.131 1320.17 968.546C1319.99 968.411 1319.82 968.282 1319.64 968.149C1319.45 962.577 1324.44 960.528 1324.78 956.134C1324.96 953.706 1325.08 950.892 1325.99 948.621C1327.51 944.884 1335.26 935.999 1338.26 932.687C1353.47 915.895 1372.54 913.44 1393.85 912.495C1397.45 912.336 1399.57 914.659 1402.84 915.091C1408.44 915.832 1413.7 915.616 1419.33 916.976C1445.01 923.177 1470.2 943.225 1487.37 962.69C1495.52 971.927 1501.42 983.11 1510.6 991.413L1510.22 990.757L1510.59 990.398C1509.99 989.002 1509.78 987.824 1509.62 986.319L1511.67 987.018L1511.9 986.146C1509.83 982.335 1509.91 978.978 1509.9 974.742C1509.83 946.755 1512.79 920.177 1522.95 893.963C1524.2 890.733 1524.57 886.499 1527.02 884.029C1528.62 884.202 1530.01 884.588 1531.54 885.075C1531.78 882.357 1528.38 880.232 1528.82 877.014C1532.71 874.929 1539.54 860.487 1543.32 855.648C1551.5 845.165 1561.21 834.119 1571.59 825.798C1593.64 808.133 1633.43 794.084 1661.72 799.875C1672.39 802.058 1686.26 808.774 1695.96 809.703C1696.74 809.778 1697.59 808.769 1698.2 808.272L1696.69 806.464C1697.81 803.544 1700.64 801.611 1702.95 799.593Q1701.99 797.386 1701.07 795.166C1701.96 795.153 1701.49 795.268 1702.4 794.624L1701.71 794.233C1704.81 790.74 1703.32 791.549 1703.83 787.637C1704.03 786.141 1718.34 763.874 1720.4 759.813L1719.4 758.105C1720.24 755.761 1724.32 753.515 1726.23 751.795C1725.12 751.469 1725.54 751.531 1724.45 751.439C1724.2 751.418 1723.96 751.406 1723.71 751.389C1725.68 736.104 1780.53 678.721 1793.8 667.081C1799.47 662.102 1816.07 653.632 1819.04 648.145Z"/>
	<path fill="#003C78" transform="matrix(1.05382 -0.00199119 0.00199626 1.05115 0 3.62399)" d="M1783.3 1024C1783.91 1022.25 1771.02 956.71 1770.01 948.525C1764.81 906.582 1761.41 840.426 1774.83 800.609C1776.28 796.302 1777.81 791.114 1782.32 789.121C1784.74 788.049 1787.49 788.179 1789.86 789.315C1792.52 790.583 1794.38 792.992 1795.35 795.725C1796.26 798.306 1796.46 801.276 1796.15 803.983C1795.54 809.393 1793.64 814.812 1792.67 820.205C1790.6 831.754 1789.3 843.643 1788.39 855.34C1787.92 861.46 1789.3 872.763 1786.67 877.967C1786.6 878.107 1786.51 878.24 1786.44 878.376Q1802.54 875.461 1818.5 871.881C1820.93 876.074 1820.97 889.101 1819.54 893.859C1819.32 894.604 1818.91 895.295 1818.48 895.936C1819.27 897.25 1819.73 898.45 1819.85 899.981C1820.77 911.444 1820.99 1016.5 1819.62 1021.43C1819.37 1022.36 1818.95 1023.19 1818.44 1024L1805.58 1024L1783.3 1024Z"/>
	<path fill="#367A00" transform="matrix(1.05382 -0.00199119 0.00199626 1.05115 0 3.62399)" d="M1786.79 899.773C1797.13 898.82 1808.18 895.537 1818.48 895.936C1819.27 897.25 1819.73 898.45 1819.85 899.981C1820.77 911.444 1820.99 1016.5 1819.62 1021.43C1819.37 1022.36 1818.95 1023.19 1818.44 1024L1805.58 1024C1807.16 1019.88 1803.94 1010.81 1802.93 1006.43C1797.5 982.757 1792.79 958.429 1789.75 934.316C1788.37 923.435 1790.16 910.046 1786.79 899.773Z"/>
	<path fill="#003C78" transform="matrix(1.05382 -0.00199119 0.00199626 1.05115 0 3.62399)" d="M1657.94 928.086C1658.05 927.904 1658.17 927.727 1658.28 927.54C1664.04 917.169 1655.35 862.405 1671.35 857.074C1673.53 856.348 1675.93 857.207 1677.79 858.354C1680.21 859.843 1683.26 862.514 1683.97 865.354C1686.06 873.709 1681.96 904.9 1681.7 916.169Q1681.09 947.509 1682.7 978.813C1682.99 984.502 1686.33 1021.24 1685.48 1024L1662.27 1024C1663.75 1014.53 1660.24 984.604 1659.97 972.643C1659.83 966.806 1661.25 956.486 1659 951.449C1635.58 944.084 1619.98 928.887 1608.68 907.328C1604.7 899.731 1599.13 888.886 1601.82 880.196C1602.55 877.849 1604.1 875.514 1606.29 874.307C1608.3 873.194 1610.71 873.211 1612.82 874.036C1621.01 877.238 1629.41 898.917 1635.55 907.308C1639.62 912.874 1644.99 918.921 1650.5 923.042C1652.79 924.748 1656.08 926.033 1657.94 928.086Z"/>
	<path fill="#FFFBBF" transform="matrix(1.05382 -0.00199119 0.00199626 1.05115 0 3.62399)" d="M1818.84 416.033C1820.76 420.495 1821.2 484.676 1819.44 489.828C1819.24 490.399 1818.92 490.947 1818.6 491.457C1800.56 497.831 1782.1 502.968 1763.88 508.825Q1678.33 537.127 1591.47 561.135C1577.9 565.013 1515.08 579.209 1507.27 584.08C1507.37 583.905 1507.49 583.739 1507.57 583.555C1509.5 579.302 1509.19 570.956 1508.85 566.371C1508.21 557.684 1500.93 515.348 1497.89 508.47C1524.07 503.254 1550.55 496.61 1576.15 489.034C1577.75 492.381 1578.2 496.288 1579.23 499.853C1582.16 509.957 1585.65 520.35 1595.47 525.6C1608.28 532.44 1620.15 534.825 1634.36 530.53C1654.75 524.367 1669.94 509.063 1679.71 490.595C1683.54 483.361 1690.23 463.295 1687.71 455.103C1692.75 454.835 1698.9 452.257 1703.86 450.912C1727.72 444.453 1751.12 436.699 1774.73 429.417C1789.22 424.947 1804.78 421.596 1818.84 416.033Z"/>
	<path fill="#FDCD00" transform="matrix(1.05382 -0.00199119 0.00199626 1.05115 0 3.62399)" d="M1507.27 584.08C1515.08 579.209 1577.9 565.013 1591.47 561.135Q1678.33 537.127 1763.88 508.825C1782.1 502.968 1800.56 497.831 1818.6 491.457C1820.65 495.585 1821.01 505.941 1819.39 510.233C1819.17 510.824 1818.85 511.361 1818.5 511.884C1800.03 516.886 1781.84 523.198 1763.6 528.983L1666.27 559.484C1629.23 570.825 1591.27 580.225 1553.74 589.864C1541.25 593.073 1512.49 602.215 1500.87 601.765C1500.99 601.683 1501.1 601.607 1501.21 601.52C1504.95 598.525 1506.78 588.725 1507.27 584.08Z"/>
	<path fill="#FDCD00" transform="matrix(1.05382 -0.00199119 0.00199626 1.05115 0 3.62399)" d="M0 492.442C50.6155 509.175 102.031 523.449 152.948 539.15C160.206 541.388 196.275 554.799 201.34 554.685C201.827 554.674 203.005 554.219 203.46 554.006C203.95 553.777 204.048 553.68 204.431 553.393C205.551 555.436 205.464 557.995 206.062 560.253Q207.166 564.332 208.726 568.259Q210.287 572.185 212.284 575.909C212.468 576.243 212.633 576.587 212.809 576.925L213.129 577.532L50.1484 526.751C33.4347 521.37 16.5326 516.666 0 510.72L0 492.442Z"/>
	<path fill="#003C78" transform="matrix(1.05382 -0.00199119 0.00199626 1.05115 0 3.62399)" d="M1186.36 351.165C1193.2 351.482 1200.75 352.647 1205.62 358.012C1207.55 360.129 1208.27 362.26 1208.82 364.983L1208.25 367.13C1210.1 370.551 1210.99 379.713 1209.89 383.395C1209.69 384.047 1209.58 384.217 1209.28 384.889C1216.1 385.288 1258.1 380.234 1263.48 377.923C1264.13 376.265 1264.18 374.794 1264.33 373.038C1264.67 369.113 1265.3 365.902 1268.66 363.345C1270.42 362.007 1272.76 361.542 1274.92 361.891C1278.14 362.41 1281.29 364.43 1283.11 367.137C1284.95 369.869 1285.31 372.978 1284.75 376.167C1287.3 379.182 1295.67 418.898 1295.18 423.605C1295.03 425.056 1294.91 425.569 1294.06 426.712C1294.27 428.312 1294.52 429.09 1295.32 430.484C1296.78 432.996 1303.35 482.7 1304.33 489.074C1308.98 519.585 1314.47 550.47 1320.72 580.691C1324.47 598.829 1329.39 616.828 1331.94 635.216C1332.4 638.51 1332.7 642.437 1331.83 645.66C1331.79 645.807 1331.74 645.95 1331.7 646.096C1333.63 654.938 1326.54 670.507 1321.78 677.906C1310.6 695.252 1291.24 709.948 1270.81 714.128C1259.1 716.522 1245.28 715.886 1235.15 708.939C1226.27 702.845 1221.61 695.112 1219.78 684.631C1219.01 680.189 1218.93 667 1217.19 664.147C1215.9 664.468 1214.99 664.392 1213.66 664.285C1211.91 664.145 1211.08 664.246 1209.49 664.961C1210.48 666.724 1210.7 668.333 1210.81 670.31C1212 690.508 1210.86 711.144 1210.95 731.387C1211.04 755.176 1212.3 779.375 1211.06 803.105C1210.78 808.529 1208.58 813.575 1204.51 817.239C1184.13 821.764 1157.88 819.258 1136.66 819.232L1012.11 818.949L756.12 819.29L680.627 819.299C663.61 819.416 645.677 820.382 628.743 819.032C622.825 818.56 616.606 817.604 612.646 812.815C610.588 810.326 609.167 808.07 608.804 804.797C606.937 787.95 608.872 767.506 608.796 750.23L608.759 696.482C608.66 684.922 607.742 673.05 608.95 661.543C607.889 656.095 610.513 649.732 608.145 644.682C610.84 632.758 609.005 583.158 608.231 568.349C607.443 562.681 609.382 557.145 608.106 551.327C610.855 542.022 608.331 496.674 608.422 483.285C608.049 477.383 608.439 471.433 608.649 465.53C610.395 454.999 609.363 401.142 608.2 388.897C608.603 382.929 607.895 376.995 608.257 371.016C608.905 366.189 610.124 361.403 613.524 357.712C617.6 353.286 622.247 352.329 628.018 352.036C636.417 353.738 645.414 354.199 653.943 355.154C675.619 357.581 697.363 359.34 719.024 361.752C758.882 366.191 798.792 369.768 838.71 373.609C862.359 375.884 886.433 379.342 910.15 379.924C919.432 380.152 928.919 378.765 938.154 377.866L993.735 372.121L1079.21 363.481C1112.78 360.283 1146.71 357.554 1180.12 352.941C1182.46 352.619 1184.35 352.484 1186.36 351.165Z"/>
	<path transform="matrix(1.05382 -0.00199119 0.00199626 1.05115 0 3.62399)" d="M1263.48 377.923C1264.13 376.265 1264.18 374.794 1264.33 373.038C1264.67 369.113 1265.3 365.902 1268.66 363.345C1270.42 362.007 1272.76 361.542 1274.92 361.891C1278.14 362.41 1281.29 364.43 1283.11 367.137C1284.95 369.869 1285.31 372.978 1284.75 376.167C1287.3 379.182 1295.67 418.898 1295.18 423.605C1295.03 425.056 1294.91 425.569 1294.06 426.712C1294.27 428.312 1294.52 429.09 1295.32 430.484C1296.78 432.996 1303.35 482.7 1304.33 489.074C1308.98 519.585 1314.47 550.47 1320.72 580.691C1324.47 598.829 1329.39 616.828 1331.94 635.216C1332.4 638.51 1332.7 642.437 1331.83 645.66C1331.79 645.807 1331.74 645.95 1331.7 646.096C1333.63 654.938 1326.54 670.507 1321.78 677.906C1310.6 695.252 1291.24 709.948 1270.81 714.128C1259.1 716.522 1245.28 715.886 1235.15 708.939C1226.27 702.845 1221.61 695.112 1219.78 684.631C1219.01 680.189 1218.93 667 1217.19 664.147C1215.9 664.468 1214.99 664.392 1213.66 664.285C1211.91 664.145 1211.08 664.246 1209.49 664.961C1211.16 659.986 1210.91 650.365 1209.39 645.29C1211.13 640.861 1211.06 584.551 1210.56 575.827C1210.42 573.49 1209.67 571.138 1209.01 568.904L1209.4 568.013C1211.43 563.38 1209.96 554.171 1209.13 549.149C1209.57 548.353 1209.92 547.555 1210.06 546.646C1211.01 540.475 1211.38 486.389 1209.47 483.635C1211.2 478.555 1209.73 471.815 1209.16 466.572C1223.13 465.31 1263.94 457.728 1276.64 453.251L1278.42 451.007C1278.8 448.358 1278.64 448.113 1277.33 445.739C1269.8 432.184 1272.23 386.337 1263.48 377.923Z"/>
	<path fill="#FFFBBF" transform="matrix(1.05382 -0.00199119 0.00199626 1.05115 0 3.62399)" d="M1209.16 466.572C1223.13 465.31 1263.94 457.728 1276.64 453.251C1279.72 457.305 1282.03 464.643 1281.61 469.747C1281.52 470.895 1281.24 471.239 1280.54 472.073C1282.62 475.266 1290.99 527.676 1292.41 535.128C1292.03 536.192 1291.8 536.944 1290.98 537.739C1274.07 539.154 1224.35 553.183 1212.55 551.526C1211.62 551.396 1210.79 550.623 1210.1 550.033Q1209.61 549.601 1209.13 549.149C1209.57 548.353 1209.92 547.555 1210.06 546.646C1211.01 540.475 1211.38 486.389 1209.47 483.635C1211.2 478.555 1209.73 471.815 1209.16 466.572Z"/>
	<path fill="#FDCD00" transform="matrix(1.05382 -0.00199119 0.00199626 1.05115 0 3.62399)" d="M1209.16 466.572C1223.13 465.31 1263.94 457.728 1276.64 453.251C1279.72 457.305 1282.03 464.643 1281.61 469.747C1281.52 470.895 1281.24 471.239 1280.54 472.073Q1259.85 476.593 1238.84 479.325C1229.73 480.563 1218.03 480.786 1209.47 483.635C1211.2 478.555 1209.73 471.815 1209.16 466.572Z"/>
	<path fill="#FFFBBF" transform="matrix(1.05382 -0.00199119 0.00199626 1.05115 0 3.62399)" d="M1209.13 549.149Q1209.61 549.601 1210.1 550.033C1210.79 550.623 1211.62 551.396 1212.55 551.526C1224.35 553.183 1274.07 539.154 1290.98 537.739C1293.78 540.134 1294.97 548.25 1296.13 552.011C1295.87 553.238 1295.66 554.502 1295.29 555.701C1295.85 556.616 1297.2 558.24 1297.09 559.252C1296.48 565.043 1302.25 588.376 1303.48 596.018C1298.4 597.203 1290.47 594.465 1284.74 594.745C1259.91 595.956 1241.84 614.164 1229.46 634.068C1227.62 637.023 1225.83 642.238 1223.35 644.374C1218.42 643.058 1214.21 643.933 1209.39 645.29C1211.13 640.861 1211.06 584.551 1210.56 575.827C1210.42 573.49 1209.67 571.138 1209.01 568.904L1209.4 568.013C1211.43 563.38 1209.96 554.171 1209.13 549.149Z"/>
	<path fill="#FDCD00" transform="matrix(1.05382 -0.00199119 0.00199626 1.05115 0 3.62399)" d="M1209.13 549.149Q1209.61 549.601 1210.1 550.033C1210.79 550.623 1211.62 551.396 1212.55 551.526C1224.35 553.183 1274.07 539.154 1290.98 537.739C1293.78 540.134 1294.97 548.25 1296.13 552.011C1295.87 553.238 1295.66 554.502 1295.29 555.701C1288.96 558.44 1219.95 568.051 1209.01 568.904L1209.4 568.013C1211.43 563.38 1209.96 554.171 1209.13 549.149Z"/>
	<path fill="#FDCD00" transform="matrix(1.05382 -0.00199119 0.00199626 1.05115 0 3.62399)" d="M1209.39 645.29C1214.21 643.933 1218.42 643.058 1223.35 644.374C1222.47 648.409 1219.74 661.727 1217.19 664.147C1215.9 664.468 1214.99 664.392 1213.66 664.285C1211.91 664.145 1211.08 664.246 1209.49 664.961C1211.16 659.986 1210.91 650.365 1209.39 645.29Z"/>
	<path fill="#FFFBBF" transform="matrix(1.05382 -0.00199119 0.00199626 1.05115 0 3.62399)" d="M1263.48 377.923C1272.23 386.337 1269.8 432.184 1277.33 445.739C1278.64 448.113 1278.8 448.358 1278.42 451.007L1276.64 453.251C1263.94 457.728 1223.13 465.31 1209.16 466.572C1211.47 460.669 1211.01 392.23 1209.28 384.889C1216.1 385.288 1258.1 380.234 1263.48 377.923Z"/>
	<path fill="#FDCD00" transform="matrix(1.05382 -0.00199119 0.00199626 1.05115 0 3.62399)" d="M291.944 303.946C298.742 288.607 312.968 267.528 329.268 261.098C336.146 258.384 343.641 258.214 350.457 261.214C357.523 264.324 362.773 270.376 365.392 277.581C370.232 290.9 369.397 311.06 362.82 323.682C362.748 323.82 362.659 323.949 362.578 324.083C399.16 329.239 435.412 339.697 471.784 346.48Q512.606 354.041 553.525 361.057C566.629 363.203 597.25 366.633 608.257 371.016C607.895 376.995 608.603 382.929 608.2 388.897C609.363 401.142 610.395 454.999 608.649 465.53C608.439 471.433 608.049 477.383 608.422 483.285C608.331 496.674 610.855 542.022 608.106 551.327C609.382 557.145 607.443 562.681 608.231 568.349C609.005 583.158 610.84 632.758 608.145 644.682C610.513 649.732 607.889 656.095 608.95 661.543C589.935 661.623 569.709 657.229 550.923 654.31Q476.744 642.792 403.442 626.601C390.273 623.822 361.82 619.238 350.606 613.805C343.283 617.017 336.439 620.822 328.778 623.278C311.117 628.939 289.179 627.112 271.517 622.295C245.324 615.152 226.618 601.198 213.129 577.532L212.809 576.925C212.633 576.587 212.468 576.243 212.284 575.909Q210.287 572.185 208.726 568.259Q207.166 564.332 206.062 560.253C205.464 557.995 205.551 555.436 204.431 553.393C205.428 549.195 202.745 542.249 202.654 537.63C202.422 525.872 209.051 491.811 215.282 482.67C216.546 476.662 219.553 470.601 221.376 464.669C230.927 443.465 239.384 421.373 248.117 399.79C249.646 394.696 251.975 389.799 254.06 384.911C259.416 376.828 262.617 366.27 266.316 357.306C269.74 349.011 273.548 340.884 277.145 332.664C279.039 328.335 280.344 323.237 283.461 319.621C284.673 314.459 289.056 308.408 291.944 303.946Z"/>
	<path transform="matrix(1.05382 -0.00199119 0.00199626 1.05115 0 3.62399)" d="M291.944 303.946C298.742 288.607 312.968 267.528 329.268 261.098C336.146 258.384 343.641 258.214 350.457 261.214C357.523 264.324 362.773 270.376 365.392 277.581C370.232 290.9 369.397 311.06 362.82 323.682C362.748 323.82 362.659 323.949 362.578 324.083C360.841 329.394 357.594 335.397 356.446 340.688C353.701 355.841 329.13 393.494 319.02 406.437C316.102 411.884 311.699 416.459 308.485 421.753C304.326 428.389 268.861 479.008 268.834 480.357C267.6 484.785 263.181 492.911 259.951 496.159C271.202 499.816 312.629 508.002 318.073 511.286C326.457 508.207 335.031 509.402 343.036 513.09C348.594 515.65 354.538 518.736 359.201 522.713C371.001 538.285 379.553 554.231 376.79 574.587C375.518 583.961 371.811 591.864 367.142 599.942C362.497 604.815 356.416 610.445 350.606 613.805C343.283 617.017 336.439 620.822 328.778 623.278C311.117 628.939 289.179 627.112 271.517 622.295C245.324 615.152 226.618 601.198 213.129 577.532L212.809 576.925C212.633 576.587 212.468 576.243 212.284 575.909Q210.287 572.185 208.726 568.259Q207.166 564.332 206.062 560.253C205.464 557.995 205.551 555.436 204.431 553.393C205.428 549.195 202.745 542.249 202.654 537.63C202.422 525.872 209.051 491.811 215.282 482.67C216.546 476.662 219.553 470.601 221.376 464.669C230.927 443.465 239.384 421.373 248.117 399.79C249.646 394.696 251.975 389.799 254.06 384.911C259.416 376.828 262.617 366.27 266.316 357.306C269.74 349.011 273.548 340.884 277.145 332.664C279.039 328.335 280.344 323.237 283.461 319.621C284.673 314.459 289.056 308.408 291.944 303.946Z"/>
	<path fill="#FFFBBF" transform="matrix(1.05382 -0.00199119 0.00199626 1.05115 0 3.62399)" d="M259.951 496.159C271.202 499.816 312.629 508.002 318.073 511.286C315.868 513.282 313.023 515.704 312.918 518.932C312.845 521.187 314.806 522.842 316.378 524.289C329.983 536.81 340.918 526.579 342.836 554.908C343.649 566.915 341.991 577.225 333.861 586.522C332.252 588.362 330.551 589.968 328.633 591.481C304.385 580.868 276.818 576.573 251.592 568.482C244.166 552.49 248.88 527.347 254.292 511.245C255.921 506.396 258.803 501.744 259.83 496.801C259.875 496.588 259.911 496.373 259.951 496.159Z"/>
	<path fill="#FDCD00" transform="matrix(1.05382 -0.00199119 0.00199626 1.05115 0 3.62399)" d="M251.592 568.482C276.818 576.573 304.385 580.868 328.633 591.481C326.521 592.917 324.402 594.401 322.168 595.646C312.401 601.089 297.234 598.24 286.873 595.361C271.794 591.17 259.299 582.193 251.592 568.482Z"/>
	<path fill="#FFFBBF" transform="matrix(1.05382 -0.00199119 0.00199626 1.05115 0 3.62399)" d="M308.485 421.753C320.012 424.163 331.29 427.769 342.686 430.724C355.773 434.118 369.068 436.978 382.258 439.947C426.023 449.799 470.093 457.963 513.955 467.256C509.888 476.317 508.014 486.821 505.541 496.432Q500.923 514.909 495.259 533.092C479.741 529.499 463.976 526.937 448.402 523.543Q380.152 509.198 312.592 491.887C299.995 488.702 279.533 485.807 268.834 480.357C268.861 479.008 304.326 428.389 308.485 421.753Z"/>
	<path fill="#FFFBBF" transform="matrix(1.05382 -0.00199119 0.00199626 1.05115 0 3.62399)" d="M356.446 340.688C380.825 344.748 404.915 351.024 429.1 356.163Q483.528 367.324 538.316 376.555C529.815 400.581 525.673 426.138 517.767 450.313C501.368 446.199 484.585 443.284 468.024 439.859C435.559 433.145 403.038 426.456 370.699 419.159C353.865 415.361 335.16 412.425 319.02 406.437C329.13 393.494 353.701 355.841 356.446 340.688Z"/>
	<path fill="#FFFBBF" transform="matrix(1.05382 -0.00199119 0.00199626 1.05115 0 3.62399)" d="M359.201 522.713C369.63 522.636 393.422 530.318 404.979 532.833C433.824 539.112 462.787 544.395 491.705 550.228C485.461 574.02 477.81 598.082 472.968 622.165C449.743 618.23 426.763 612.491 403.695 607.707C393.667 605.627 375.526 604.295 367.142 599.942C371.811 591.864 375.518 583.961 376.79 574.587C379.553 554.231 371.001 538.285 359.201 522.713Z"/>
	<path fill="#FFFBBF" transform="matrix(1.05382 -0.00199119 0.00199626 1.05115 0 3.62399)" d="M509.581 554.104C530.168 557.838 550.988 560.843 571.686 563.916C583.535 565.675 596.266 568.521 608.231 568.349C609.005 583.158 610.84 632.758 608.145 644.682C568.533 640.45 529.199 632.369 489.835 626.287C497.235 602.465 501.84 577.786 509.581 554.104Z"/>
	<path fill="#FFFBBF" transform="matrix(1.05382 -0.00199119 0.00199626 1.05115 0 3.62399)" d="M532.279 470.573L584.14 479.834C591.949 481.158 600.504 483.353 608.422 483.285C608.331 496.674 610.855 542.022 608.106 551.327C576.603 547.812 545.225 542.014 513.956 536.841C519.767 514.844 524.765 492.029 532.279 470.573Z"/>
	<path fill="#FFFBBF" transform="matrix(1.05382 -0.00199119 0.00199626 1.05115 0 3.62399)" d="M555.019 379.421C569.765 381.953 595.374 384.616 608.2 388.897C609.363 401.142 610.395 454.999 608.649 465.53C600.701 465.19 592.375 463.17 584.51 461.821Q560.229 457.664 536.009 453.168C543.501 428.991 548.482 403.89 555.019 379.421Z"/>
	<path fill="#FDCD00" transform="matrix(1.05382 -0.00199119 0.00199626 1.05115 0 3.62399)" d="M1445.77 326.154L1447.16 324.455C1447.22 322.52 1447.25 320.546 1448.35 318.871C1449.84 316.588 1452.6 315.12 1455.22 314.538C1457.65 313.999 1460.36 314.341 1462.41 315.781C1464.23 317.055 1465.66 318.706 1466.11 320.905C1468.35 325.303 1470.11 333.852 1468.97 338.735C1471.25 347.1 1482.02 400.317 1480.5 406.232C1483.59 409.577 1483.87 420.931 1483.77 425.712C1487.07 432.824 1496.33 485.182 1494.81 490.628C1496.85 494.096 1498.92 503.98 1498.04 507.994C1498.01 508.156 1497.94 508.311 1497.89 508.47C1500.93 515.348 1508.21 557.684 1508.85 566.371C1509.19 570.956 1509.5 579.302 1507.57 583.555C1507.49 583.739 1507.37 583.905 1507.27 584.08C1506.78 588.725 1504.95 598.525 1501.21 601.52C1501.1 601.607 1500.99 601.683 1500.87 601.765C1501.22 606.524 1495.96 612.603 1493 616.028C1479.1 632.124 1463.81 644.07 1441.66 645.605C1426.99 646.622 1418.83 645.452 1407.6 635.48C1404.86 633.05 1402.43 630.471 1399.36 628.455C1384.81 631.216 1370.47 635.484 1356.06 638.925C1349.68 640.449 1342.06 641.136 1335.95 643.328C1334.22 643.95 1333.02 644.828 1331.7 646.096C1331.74 645.95 1331.79 645.807 1331.83 645.66C1332.7 642.437 1332.4 638.51 1331.94 635.216C1329.39 616.828 1324.47 598.829 1320.72 580.691C1314.47 550.47 1308.98 519.585 1304.33 489.074C1303.35 482.7 1296.78 432.996 1295.32 430.484C1294.52 429.09 1294.27 428.312 1294.06 426.712C1294.91 425.569 1295.03 425.056 1295.18 423.605C1295.67 418.898 1287.3 379.182 1284.75 376.167C1296.63 371.769 1310.73 371.121 1323.24 369.024Q1354.84 363.595 1386.3 357.402Q1407.71 353.087 1429.01 348.282C1434.83 346.964 1442.33 343.97 1448.13 343.996C1449.92 339.629 1446.77 330.819 1445.77 326.154Z"/>
	<path transform="matrix(1.05382 -0.00199119 0.00199626 1.05115 0 3.62399)" d="M1445.77 326.154L1447.16 324.455C1447.22 322.52 1447.25 320.546 1448.35 318.871C1449.84 316.588 1452.6 315.12 1455.22 314.538C1457.65 313.999 1460.36 314.341 1462.41 315.781C1464.23 317.055 1465.66 318.706 1466.11 320.905C1468.35 325.303 1470.11 333.852 1468.97 338.735C1471.25 347.1 1482.02 400.317 1480.5 406.232C1483.59 409.577 1483.87 420.931 1483.77 425.712C1487.07 432.824 1496.33 485.182 1494.81 490.628C1496.85 494.096 1498.92 503.98 1498.04 507.994C1498.01 508.156 1497.94 508.311 1497.89 508.47C1500.93 515.348 1508.21 557.684 1508.85 566.371C1509.19 570.956 1509.5 579.302 1507.57 583.555C1507.49 583.739 1507.37 583.905 1507.27 584.08C1506.78 588.725 1504.95 598.525 1501.21 601.52C1501.1 601.607 1500.99 601.683 1500.87 601.765C1501.22 606.524 1495.96 612.603 1493 616.028C1479.1 632.124 1463.81 644.07 1441.66 645.605C1426.99 646.622 1418.83 645.452 1407.6 635.48C1404.86 633.05 1402.43 630.471 1399.36 628.455C1398.95 622.796 1393.77 617.58 1393.74 611.57C1393.74 611.402 1393.77 611.235 1393.78 611.067L1391.85 609.659L1394.1 607.585C1393.98 607.221 1393.74 606.51 1393.61 606.208C1390.73 599.908 1394.53 589.735 1395.49 582.943C1396.25 577.562 1401.28 571.531 1404.14 566.933C1416.08 547.69 1436.93 531.898 1459.37 527.495C1465.71 526.249 1472.59 527.25 1478.57 525.849C1479.57 523.478 1478.65 521.434 1477.98 519.082C1478.14 518.506 1478.21 518.383 1478.17 517.7C1477.94 513.881 1475.67 501.121 1473.22 498.649C1475.4 494.389 1467.17 446.648 1465.73 437.503C1465.17 433.963 1465 431.429 1462.08 429.268C1462.14 428.843 1462.17 428.73 1462.18 428.244C1462.35 423.036 1462.6 417.408 1458.93 413.336C1459.69 412.55 1459.99 411.89 1460.38 410.881C1459.03 400.118 1452.12 348.124 1448.13 343.996C1449.92 339.629 1446.77 330.819 1445.77 326.154Z"/>
	<path fill="#FFFBBF" transform="matrix(1.05382 -0.00199119 0.00199626 1.05115 0 3.62399)" d="M1284.75 376.167C1296.63 371.769 1310.73 371.121 1323.24 369.024Q1354.84 363.595 1386.3 357.402Q1407.71 353.087 1429.01 348.282C1434.83 346.964 1442.33 343.97 1448.13 343.996C1452.12 348.124 1459.03 400.118 1460.38 410.881C1459.99 411.89 1459.69 412.55 1458.93 413.336C1429.76 420.13 1400.53 427.39 1371.46 434.643C1349.28 440.177 1324.91 448.072 1301.98 448.726C1302.06 441.776 1298.98 434.059 1296.48 427.649L1294.06 426.712C1294.91 425.569 1295.03 425.056 1295.18 423.605C1295.67 418.898 1287.3 379.182 1284.75 376.167Z"/>
	<path fill="#FFFBBF" transform="matrix(1.05382 -0.00199119 0.00199626 1.05115 0 3.62399)" d="M1462.08 429.268C1465 431.429 1465.17 433.963 1465.73 437.503C1467.17 446.648 1475.4 494.389 1473.22 498.649C1466.12 504.126 1333.24 530.702 1317.52 531.888C1317.93 531.124 1318.24 530.404 1318.43 529.549C1319.36 525.224 1308.65 471.92 1305.86 467.326C1339.07 461.56 1371.5 453.645 1404.29 445.932C1422.09 441.747 1441.94 438.429 1458.97 431.822C1460.79 431.117 1461.25 431.143 1462.08 429.268Z"/>
	<path fill="#FFFBBF" transform="matrix(1.05382 -0.00199119 0.00199626 1.05115 0 3.62399)" d="M1321.56 550.412C1361.16 544.765 1400.22 535.682 1439.15 526.671C1444.14 525.515 1474.14 517.715 1476.47 518.155C1477.05 518.264 1477.48 518.773 1477.98 519.082C1478.65 521.434 1479.57 523.478 1478.57 525.849C1472.59 527.25 1465.71 526.249 1459.37 527.495C1436.93 531.898 1416.08 547.69 1404.14 566.933C1401.28 571.531 1396.25 577.562 1395.49 582.943C1394.53 589.735 1390.73 599.908 1393.61 606.208C1393.74 606.51 1393.98 607.221 1394.1 607.585L1391.85 609.659L1391.39 610.857C1386.13 614.16 1345.03 623.474 1337.06 624.75C1337.94 623.169 1338.26 621.805 1338.23 620.013C1338.09 610.959 1326.52 555.133 1321.56 550.412Z"/>
	<path transform="matrix(1.05382 -0.00199119 0.00199626 1.05115 0 3.62399)" d="M1608.31 280.969C1610.37 273.135 1595.08 235.979 1592.71 225.196C1591.93 221.654 1591.03 217.184 1593.16 213.974C1594.29 212.275 1598.68 210.275 1600.7 209.99Q1601.14 209.932 1601.58 209.918Q1602.02 209.905 1602.45 209.936Q1602.89 209.968 1603.33 210.044Q1603.76 210.121 1604.18 210.241Q1604.61 210.361 1605.02 210.524Q1605.43 210.687 1605.82 210.891Q1606.21 211.095 1606.57 211.338Q1606.94 211.581 1607.28 211.86C1609.78 213.876 1611.66 217.003 1612.89 219.926C1615.73 226.664 1628.91 269.318 1629.65 275.658C1632.81 279.906 1635.76 288.917 1635.66 294.238C1639.6 300.828 1656.65 351.858 1656.49 357.299C1659.51 359.391 1662.23 369.193 1662.8 372.882C1662.93 373.738 1662.8 374.33 1662.64 375.169C1665 378.424 1684.61 433.302 1684.51 436.526C1687.72 440.658 1688.14 450.072 1687.71 455.103C1690.23 463.295 1683.54 483.361 1679.71 490.595C1669.94 509.063 1654.75 524.367 1634.36 530.53C1620.15 534.825 1608.28 532.44 1595.47 525.6C1585.65 520.35 1582.16 509.957 1579.23 499.853C1578.2 496.288 1577.75 492.381 1576.15 489.034C1550.55 496.61 1524.07 503.254 1497.89 508.47C1497.94 508.311 1498.01 508.156 1498.04 507.994C1498.92 503.98 1496.85 494.096 1494.81 490.628C1496.33 485.182 1487.07 432.824 1483.77 425.712C1483.87 420.931 1483.59 409.577 1480.5 406.232C1482.02 400.317 1471.25 347.1 1468.97 338.735C1470.11 333.852 1468.35 325.303 1466.11 320.905C1479.92 316.25 1494.64 313.321 1508.79 309.776Q1543.34 301.138 1577.64 291.557C1587.11 288.89 1598.1 286.94 1607.05 283.053C1607.94 282.668 1607.96 281.832 1608.31 280.969Z"/>
	<path fill="#FFFBBF" transform="matrix(1.05382 -0.00199119 0.00199626 1.05115 0 3.62399)" d="M1608.31 280.969C1613.2 285.218 1612.74 292.915 1614.78 298.924L1614.23 300.436C1615.71 301.48 1616.92 302.514 1617.74 304.155C1619.72 308.107 1620.49 312.747 1621.91 316.941C1626.94 331.855 1631.3 346.957 1636.29 361.858L1635.61 364.478C1635.04 365.076 1634.6 365.596 1633.82 365.926C1624.59 369.843 1611.34 372.072 1601.45 374.903C1586.57 379.162 1494.51 407.425 1483.61 406.977C1482.55 406.933 1481.49 406.59 1480.5 406.232C1482.02 400.317 1471.25 347.1 1468.97 338.735C1470.11 333.852 1468.35 325.303 1466.11 320.905C1479.92 316.25 1494.64 313.321 1508.79 309.776Q1543.34 301.138 1577.64 291.557C1587.11 288.89 1598.1 286.94 1607.05 283.053C1607.94 282.668 1607.96 281.832 1608.31 280.969Z"/>
	<path fill="#FDCD00" transform="matrix(1.05382 -0.00199119 0.00199626 1.05115 0 3.62399)" d="M1608.31 280.969C1613.2 285.218 1612.74 292.915 1614.78 298.924L1614.23 300.436C1584.88 307.655 1555.91 316.393 1526.68 324.096C1507.5 329.15 1487.93 332.9 1468.97 338.735C1470.11 333.852 1468.35 325.303 1466.11 320.905C1479.92 316.25 1494.64 313.321 1508.79 309.776Q1543.34 301.138 1577.64 291.557C1587.11 288.89 1598.1 286.94 1607.05 283.053C1607.94 282.668 1607.96 281.832 1608.31 280.969Z"/>
	<path fill="#FFFBBF" transform="matrix(1.05382 -0.00199119 0.00199626 1.05115 0 3.62399)" d="M1635.61 364.478C1638.39 368.364 1641.92 376.253 1641.5 381.115C1644.78 383.565 1650.01 398.819 1650.74 403.516C1650.86 404.295 1650.93 405.073 1650.98 405.859C1649.7 407.246 1644.43 406.967 1642.41 407.048C1626.27 407.697 1611.92 414.266 1600.96 426.109C1596.12 431.339 1591.02 437.465 1588.03 443.98C1585.66 449.158 1580.54 469.531 1577.24 471.334C1578.07 476.544 1577.85 484.053 1576.15 489.034C1550.55 496.61 1524.07 503.254 1497.89 508.47C1497.94 508.311 1498.01 508.156 1498.04 507.994C1498.92 503.98 1496.85 494.096 1494.81 490.628C1496.33 485.182 1487.07 432.824 1483.77 425.712C1483.87 420.931 1483.59 409.577 1480.5 406.232C1481.49 406.59 1482.55 406.933 1483.61 406.977C1494.51 407.425 1586.57 379.162 1601.45 374.903C1611.34 372.072 1624.59 369.843 1633.82 365.926C1634.6 365.596 1635.04 365.076 1635.61 364.478Z"/>
	<path fill="#FDCD00" transform="matrix(1.05382 -0.00199119 0.00199626 1.05115 0 3.62399)" d="M1635.61 364.478C1638.39 368.364 1641.92 376.253 1641.5 381.115C1623.24 388.983 1601.96 394.103 1582.78 399.32L1511.47 418.742C1503.93 420.78 1489.87 422.101 1483.77 425.712C1483.87 420.931 1483.59 409.577 1480.5 406.232C1481.49 406.59 1482.55 406.933 1483.61 406.977C1494.51 407.425 1586.57 379.162 1601.45 374.903C1611.34 372.072 1624.59 369.843 1633.82 365.926C1634.6 365.596 1635.04 365.076 1635.61 364.478Z"/>
	<path fill="#FDCD00" transform="matrix(1.05382 -0.00199119 0.00199626 1.05115 0 3.62399)" d="M1494.81 490.628C1496.65 491.099 1497.88 490.989 1499.72 490.629C1514.01 487.842 1528.16 483.419 1542.31 479.978C1552.55 477.489 1568.29 475.729 1577.24 471.334C1578.07 476.544 1577.85 484.053 1576.15 489.034C1550.55 496.61 1524.07 503.254 1497.89 508.47C1497.94 508.311 1498.01 508.156 1498.04 507.994C1498.92 503.98 1496.85 494.096 1494.81 490.628Z"/>
	<path fill="#FFFBBF" transform="matrix(1.05382 -0.00199119 0.00199626 1.05115 0 3.62399)" d="M26.832 333.902C46.3815 337.137 66.1401 345.533 85.054 351.402Q135.127 367.201 185.448 382.192C206.204 388.42 226.938 395.144 248.117 399.79C239.384 421.373 230.927 443.465 221.376 464.669C219.553 470.601 216.546 476.662 215.282 482.67C209.051 491.811 202.422 525.872 202.654 537.63C202.745 542.249 205.428 549.195 204.431 553.393C204.048 553.68 203.95 553.777 203.46 554.006C203.005 554.219 201.827 554.674 201.34 554.685C196.275 554.799 160.206 541.388 152.948 539.15C102.031 523.449 50.6155 509.175 0 492.442L0 415.562L0 396.809L0 366.068C12.423 359.129 19.1728 345.352 26.832 333.902Z"/>
	<path fill="#FFFBBF" transform="matrix(1.05382 -0.00199119 0.00199626 1.05115 0 3.62399)" d="M0 415.562C51.1751 432.396 102.989 447.294 154.405 463.384C174.566 469.693 195.818 474.497 215.282 482.67C209.051 491.811 202.422 525.872 202.654 537.63C202.745 542.249 205.428 549.195 204.431 553.393C204.048 553.68 203.95 553.777 203.46 554.006C203.005 554.219 201.827 554.674 201.34 554.685C196.275 554.799 160.206 541.388 152.948 539.15C102.031 523.449 50.6155 509.175 0 492.442L0 415.562Z"/>
	<path fill="#FDCD00" transform="matrix(1.05382 -0.00199119 0.00199626 1.05115 0 3.62399)" d="M0 396.809C55.2438 413.168 110.117 430.996 165.231 447.799L203.584 459.524C209.196 461.24 215.593 464.001 221.376 464.669C219.553 470.601 216.546 476.662 215.282 482.67C195.818 474.497 174.566 469.693 154.405 463.384C102.989 447.294 51.1751 432.396 0 415.562L0 396.809Z"/>
	<path fill="#FDCD00" transform="matrix(1.05382 -0.00199119 0.00199626 1.05115 0 3.62399)" d="M1768.76 234.384C1771.57 230.138 1770.61 213.141 1771.58 207.193C1774.48 189.464 1781.28 170.838 1792.11 156.408C1798.2 148.293 1807.93 139.225 1818.46 137.746C1819.6 139.589 1819.84 141.033 1819.92 143.169C1820.57 160.897 1820.03 178.839 1820.03 196.585L1820.04 299.666C1820.03 310.315 1821.56 358.007 1819.54 365.408C1819.38 365.995 1819.13 366.562 1818.86 367.107C1820.91 372.037 1821.48 389.237 1819.5 394.449C1819.25 395.109 1818.94 395.725 1818.58 396.331C1820.79 400.361 1820.76 410.276 1819.45 414.617C1819.29 415.122 1819.07 415.552 1818.84 416.033C1804.78 421.596 1789.22 424.947 1774.73 429.417C1751.12 436.699 1727.72 444.453 1703.86 450.912C1698.9 452.257 1692.75 454.835 1687.71 455.103C1688.14 450.072 1687.72 440.658 1684.51 436.526C1684.61 433.302 1665 378.424 1662.64 375.169C1662.8 374.33 1662.93 373.738 1662.8 372.882C1662.23 369.193 1659.51 359.391 1656.49 357.299C1656.65 351.858 1639.6 300.828 1635.66 294.238C1635.76 288.917 1632.81 279.906 1629.65 275.658C1641.39 274.419 1761.82 238.013 1768.76 234.384Z"/>
	<path fill="#FFFBBF" transform="matrix(1.05382 -0.00199119 0.00199626 1.05115 0 3.62399)" d="M1662.64 375.169C1690.96 367.379 1718.58 357.752 1746.53 348.844C1760.72 344.322 1778.33 340.901 1791.16 333.704C1797.36 338.23 1801.2 349.112 1806.35 355.172C1810.04 359.518 1815.72 362.376 1818.86 367.107C1820.91 372.037 1821.48 389.237 1819.5 394.449C1819.25 395.109 1818.94 395.725 1818.58 396.331C1820.79 400.361 1820.76 410.276 1819.45 414.617C1819.29 415.122 1819.07 415.552 1818.84 416.033C1804.78 421.596 1789.22 424.947 1774.73 429.417C1751.12 436.699 1727.72 444.453 1703.86 450.912C1698.9 452.257 1692.75 454.835 1687.71 455.103C1688.14 450.072 1687.72 440.658 1684.51 436.526C1684.61 433.302 1665 378.424 1662.64 375.169Z"/>
	<path fill="#FDCD00" transform="matrix(1.05382 -0.00199119 0.00199626 1.05115 0 3.62399)" d="M1684.51 436.526C1692.6 436.977 1806.43 400.618 1818.58 396.331C1820.79 400.361 1820.76 410.276 1819.45 414.617C1819.29 415.122 1819.07 415.552 1818.84 416.033C1804.78 421.596 1789.22 424.947 1774.73 429.417C1751.12 436.699 1727.72 444.453 1703.86 450.912C1698.9 452.257 1692.75 454.835 1687.71 455.103C1688.14 450.072 1687.72 440.658 1684.51 436.526Z"/>
	<path fill="#FFFBBF" transform="matrix(1.05382 -0.00199119 0.00199626 1.05115 0 3.62399)" d="M1635.66 294.238C1646.45 288.512 1661.67 285.691 1673.45 282.189Q1710.54 271.323 1747.41 259.716C1753.93 257.673 1764.21 255.935 1769.75 252.255C1773.23 260.95 1774.79 281.556 1777.22 291.89C1778.27 296.396 1784.45 313.947 1783.8 317.302C1776.31 322.291 1660.86 357.369 1656.49 357.299C1656.65 351.858 1639.6 300.828 1635.66 294.238Z"/>
	<path fill="#FDCD00" transform="matrix(1.05382 -0.00199119 0.00199626 1.05115 0 3.62399)" d="M0 135.472C15.1771 139.349 26.562 150.28 34.4054 163.514C46.7165 184.286 50.8224 210.79 50.5765 234.611Q128.384 256.347 205.836 279.316C234.57 287.597 263.434 294.862 291.944 303.946C289.056 308.408 284.673 314.459 283.461 319.621C280.344 323.237 279.039 328.335 277.145 332.664C273.548 340.884 269.74 349.011 266.316 357.306C262.617 366.27 259.416 376.828 254.06 384.911C251.975 389.799 249.646 394.696 248.117 399.79C226.938 395.144 206.204 388.42 185.448 382.192Q135.127 367.201 85.054 351.402C66.1401 345.533 46.3815 337.137 26.832 333.902C19.1728 345.352 12.423 359.129 0 366.068L0 135.472Z"/>
	<path fill="#FFFBBF" transform="matrix(1.05382 -0.00199119 0.00199626 1.05115 0 3.62399)" d="M49.442 252.252C69.6363 257.603 89.4035 264.135 109.448 269.972L232.088 304.849C239.772 307.001 279.989 316.457 283.461 319.621C280.344 323.237 279.039 328.335 277.145 332.664C273.548 340.884 269.74 349.011 266.316 357.306C262.617 366.27 259.416 376.828 254.06 384.911C239.099 378.098 221.596 375.022 205.921 369.947C148.859 351.474 90.7492 335.884 33.9984 316.484C42.0992 295.702 46.3151 274.233 49.442 252.252Z"/>
	<path fill="#FDCD00" transform="matrix(1.05382 -0.00199119 0.00199626 1.05115 0 3.62399)" d="M909.755 376.2C922.201 366.745 934.329 362.708 949.652 360.623C969.144 357.971 1181.74 336.266 1184.32 337.2C1184.83 337.387 1185.67 338.228 1186.14 338.587C1188.12 342.376 1187.31 347.179 1186.36 351.165C1184.35 352.484 1182.46 352.619 1180.12 352.941C1146.71 357.554 1112.78 360.283 1079.21 363.481L993.735 372.121L938.154 377.866C928.919 378.765 919.432 380.152 910.15 379.924C886.433 379.342 862.359 375.884 838.71 373.609C798.792 369.768 758.882 366.191 719.024 361.752C697.363 359.34 675.619 357.581 653.943 355.154C645.414 354.199 636.417 353.738 628.018 352.036C629.504 348.538 629.112 344.232 631.395 340.998C632.526 339.396 634.063 338.386 635.995 338.094C644.257 336.848 667.851 340.565 677.416 341.449L795.648 353.06L848.486 358.129C859.58 359.197 871.164 359.897 882.049 362.314C892.587 364.653 901.223 369.89 909.755 376.2Z"/>
	<path fill="#FDCD00" transform="matrix(1.05382 -0.00199119 0.00199626 1.05115 0 3.62399)" d="M1208.25 367.13C1222.42 368.149 1249.35 362.09 1264.35 359.684Q1325.02 349.928 1385.45 338.829C1405.64 334.927 1425.59 330.05 1445.77 326.154C1446.77 330.819 1449.92 339.629 1448.13 343.996C1442.33 343.97 1434.83 346.964 1429.01 348.282Q1407.71 353.087 1386.3 357.402Q1354.84 363.595 1323.24 369.024C1310.73 371.121 1296.63 371.769 1284.75 376.167C1285.31 372.978 1284.95 369.869 1283.11 367.137C1281.29 364.43 1278.14 362.41 1274.92 361.891C1272.76 361.542 1270.42 362.007 1268.66 363.345C1265.3 365.902 1264.67 369.113 1264.33 373.038C1264.18 374.794 1264.13 376.265 1263.48 377.923C1258.1 380.234 1216.1 385.288 1209.28 384.889C1209.58 384.217 1209.69 384.047 1209.89 383.395C1210.99 379.713 1210.1 370.551 1208.25 367.13Z"/>
	<path fill="#FDCD00" transform="matrix(1.05382 -0.00199119 0.00199626 1.05115 0 3.62399)" d="M1012.6 116.741C1012.66 116.736 1012.73 116.728 1012.8 116.724C1023.25 116.105 1034.22 117.587 1042.19 124.968C1050.46 132.618 1053.1 143.708 1053.51 154.582C1053.92 165.317 1052.42 176.904 1044.72 185.031C1037.25 192.929 1027.87 193.94 1017.63 194.209C1007.99 194.793 995.872 194.616 987.914 188.511C982.292 184.199 979.536 177.709 978.623 170.821C976.96 158.268 976.184 138.444 984.295 128.084C991.221 119.239 1002.22 117.964 1012.6 116.741Z"/>
	<path fill="#FDCD00" transform="matrix(1.05382 -0.00199119 0.00199626 1.05115 0 3.62399)" d="M685.344 116.677C697.203 116.025 712.035 114.606 722.966 119.954C729.591 123.196 733.978 129.196 736.327 136.067C740.169 147.303 740.307 163.77 734.86 174.431C730.499 182.969 724.32 186.941 715.465 189.9C704.363 191.645 691.701 193.06 681.05 188.644Q680.411 188.386 679.786 188.096Q679.161 187.806 678.552 187.484Q677.943 187.163 677.35 186.811Q676.758 186.459 676.184 186.078Q675.611 185.696 675.057 185.286Q674.503 184.876 673.971 184.439Q673.439 184.001 672.929 183.537Q672.42 183.074 671.935 182.584Q671.45 182.095 670.99 181.582Q670.53 181.069 670.097 180.533Q669.663 179.998 669.258 179.441Q668.852 178.884 668.475 178.307Q668.099 177.73 667.751 177.135Q667.404 176.539 667.088 175.927Q666.771 175.315 666.486 174.688Q666.201 174.061 665.948 173.42C661.552 162.589 661.852 143.859 666.605 133.169C670.596 124.194 676.411 120.024 685.344 116.677Z"/>
	<path fill="#FDCD00" transform="matrix(1.05382 -0.00199119 0.00199626 1.05115 0 3.62399)" d="M792.551 123.689C802.185 123 811.375 122.515 820.224 127.194Q820.902 127.555 821.56 127.95Q822.219 128.345 822.856 128.773Q823.494 129.201 824.109 129.66Q824.724 130.12 825.315 130.61Q825.907 131.1 826.472 131.619Q827.038 132.138 827.576 132.686Q828.115 133.233 828.625 133.807Q829.136 134.381 829.616 134.98Q830.097 135.579 830.546 136.201Q830.996 136.824 831.414 137.468Q831.831 138.113 832.216 138.777Q832.6 139.442 832.95 140.126Q833.301 140.809 833.616 141.509Q833.931 142.209 834.211 142.925Q834.49 143.64 834.733 144.369Q834.976 145.097 835.182 145.837C837.825 155 837.004 165.448 832.225 173.777C827.788 181.51 821.314 185.67 812.913 188.027C803.461 190.382 792.705 190.069 784.046 185.262Q783.347 184.876 782.667 184.455Q781.988 184.034 781.331 183.58Q780.674 183.126 780.04 182.639Q779.406 182.153 778.798 181.635Q778.189 181.117 777.607 180.57Q777.025 180.023 776.471 179.447Q775.917 178.871 775.392 178.268Q774.868 177.666 774.374 177.037Q773.88 176.409 773.419 175.757Q772.957 175.105 772.528 174.431Q772.1 173.756 771.705 173.061Q771.311 172.366 770.952 171.653Q770.593 170.939 770.269 170.208Q769.946 169.477 769.66 168.731Q769.374 167.985 769.126 167.225Q768.877 166.466 768.667 165.695C766.195 156.739 767.206 146.355 771.881 138.269C776.638 130.042 783.634 126.101 792.551 123.689Z"/>
	<path fill="#FDCD00" transform="matrix(1.05382 -0.00199119 0.00199626 1.05115 0 3.62399)" d="M901.931 123.311Q902.741 123.077 903.562 122.882Q904.383 122.688 905.213 122.535Q906.042 122.381 906.879 122.268Q907.715 122.156 908.555 122.084Q909.396 122.013 910.239 121.983Q911.082 121.953 911.925 121.964Q912.769 121.975 913.611 122.028Q914.453 122.081 915.291 122.175Q916.13 122.269 916.962 122.405Q917.795 122.54 918.62 122.716Q919.445 122.892 920.26 123.108Q921.076 123.324 921.88 123.581Q922.683 123.837 923.474 124.132Q924.264 124.427 925.039 124.761Q925.813 125.095 926.571 125.466Q927.328 125.838 928.067 126.246Q928.805 126.654 929.522 127.098Q930.24 127.542 930.934 128.021Q931.629 128.5 932.299 129.012Q932.97 129.525 933.614 130.069Q934.258 130.614 934.875 131.189Q935.492 131.765 936.08 132.37Q936.668 132.976 937.225 133.609Q937.782 134.242 938.308 134.902Q938.834 135.562 939.326 136.248Q939.819 136.933 940.277 137.641Q940.735 138.35 941.158 139.08Q941.581 139.81 941.968 140.56Q942.354 141.31 942.703 142.078Q943.053 142.846 943.364 143.63Q943.675 144.415 943.947 145.213Q944.219 146.012 944.452 146.823Q944.685 147.634 944.877 148.456Q945.07 149.277 945.222 150.107Q945.374 150.937 945.485 151.774Q945.596 152.61 945.666 153.451Q945.735 154.292 945.764 155.135Q945.792 155.979 945.779 156.822Q945.766 157.666 945.711 158.508Q945.657 159.35 945.561 160.189Q945.465 161.027 945.328 161.86Q945.192 162.692 945.014 163.517Q944.836 164.342 944.618 165.157Q944.401 165.973 944.143 166.776Q943.885 167.58 943.589 168.369Q943.292 169.159 942.956 169.934Q942.621 170.708 942.248 171.465Q941.875 172.222 941.466 172.959Q941.056 173.697 940.611 174.414Q940.165 175.13 939.685 175.824Q939.205 176.518 938.692 177.188Q938.178 177.857 937.633 178.501Q937.087 179.144 936.51 179.76Q935.933 180.376 935.327 180.963Q934.721 181.549 934.086 182.106Q933.452 182.662 932.791 183.186Q932.13 183.711 931.444 184.202Q930.758 184.693 930.049 185.15Q929.34 185.607 928.609 186.029Q927.879 186.45 927.128 186.835Q926.377 187.221 925.609 187.568Q924.84 187.916 924.055 188.226Q923.271 188.536 922.471 188.806Q921.672 189.077 920.861 189.308Q920.052 189.539 919.232 189.729Q918.412 189.92 917.584 190.07Q916.756 190.22 915.922 190.329Q915.088 190.439 914.249 190.507Q913.41 190.575 912.569 190.603Q911.728 190.63 910.887 190.616Q910.046 190.602 909.206 190.546Q908.366 190.491 907.53 190.395Q906.694 190.298 905.864 190.161Q905.034 190.024 904.211 189.846Q903.389 189.668 902.576 189.45Q901.763 189.232 900.962 188.975Q900.161 188.717 899.374 188.421Q898.586 188.124 897.814 187.79Q897.042 187.455 896.287 187.083Q895.532 186.711 894.797 186.302Q894.061 185.893 893.346 185.449Q892.632 185.005 891.939 184.526Q891.247 184.047 890.58 183.535Q889.912 183.023 889.27 182.479Q888.628 181.935 888.013 181.36Q887.399 180.785 886.813 180.18Q886.228 179.576 885.673 178.943Q885.117 178.311 884.594 177.652Q884.07 176.993 883.58 176.309Q883.089 175.626 882.632 174.919Q882.176 174.212 881.754 173.483Q881.333 172.755 880.948 172.006Q880.562 171.258 880.214 170.492Q879.866 169.725 879.556 168.943Q879.246 168.16 878.974 167.364Q878.703 166.567 878.471 165.758Q878.239 164.949 878.047 164.13Q877.855 163.31 877.703 162.482Q877.551 161.654 877.44 160.82Q877.329 159.986 877.259 159.147Q877.189 158.308 877.16 157.467Q877.131 156.626 877.144 155.784Q877.156 154.943 877.21 154.103Q877.264 153.263 877.358 152.426Q877.453 151.59 877.589 150.759Q877.724 149.929 877.9 149.105Q878.076 148.282 878.293 147.469Q878.509 146.656 878.765 145.854Q879.021 145.052 879.315 144.264Q879.61 143.475 879.943 142.702Q880.276 141.929 880.647 141.174Q881.017 140.418 881.424 139.681Q881.832 138.945 882.274 138.229Q882.717 137.513 883.194 136.82Q883.672 136.127 884.182 135.458Q884.693 134.789 885.236 134.146Q885.779 133.503 886.352 132.887Q886.926 132.271 887.529 131.684Q888.132 131.097 888.763 130.54Q889.394 129.984 890.052 129.459Q890.71 128.934 891.392 128.442Q892.075 127.949 892.781 127.491Q893.487 127.033 894.214 126.61Q894.942 126.187 895.689 125.801Q896.437 125.414 897.202 125.064Q897.968 124.714 898.749 124.403Q899.531 124.091 900.327 123.818Q901.123 123.545 901.931 123.311Z"/>
	<path fill="#FDCD00" transform="matrix(1.05382 -0.00199119 0.00199626 1.05115 0 3.62399)" d="M1109.43 124.884C1120.3 123.634 1131.95 123.472 1141.03 130.528C1147.81 135.792 1151.6 143.767 1152.55 152.195C1153.6 161.589 1151.4 171.646 1145.4 179.095C1140.1 185.672 1133.4 188.562 1125.17 189.46C1118.04 191.312 1108.78 190.358 1102.11 187.241C1094.6 183.729 1089.13 177.378 1086.4 169.583C1083.37 160.893 1083.7 150.219 1087.75 141.903C1092.43 132.285 1099.86 128.276 1109.43 124.884Z"/>
</svg>
